<svg width="167" height="22" viewBox="0 0 167 22" fill="none" xmlns="http://www.w3.org/2000/svg">
<path d="M64.4691 2.5L64.968 2.46692C64.9547 2.26635 64.8226 2.09324 64.6327 2.0275C64.4427 1.96176 64.2319 2.01616 64.0974 2.1656L64.4691 2.5ZM63.5428 6.72701C63.5428 6.45086 63.3189 6.22701 63.0428 6.22701C62.7666 6.22701 62.5428 6.45086 62.5428 6.72701H63.5428ZM54.5 8V8.5H55V8H54.5ZM45.9264 2.5L46.3946 2.32468C46.3249 2.13834 46.1512 2.0111 45.9525 2.00069C45.7539 1.99027 45.5679 2.09865 45.479 2.27667L45.9264 2.5ZM51.5 15.5L51.8538 15.8533C51.9762 15.7307 52.0264 15.5536 51.9866 15.385C51.9468 15.2165 51.8226 15.0806 51.6583 15.0257L51.5 15.5ZM44.5 18.2143V17.7143C44.2797 17.7143 44.0854 17.8584 44.0215 18.0692C43.9576 18.28 44.0392 18.5078 44.2224 18.6301L44.5 18.2143ZM61.9515 3.89054L61.5806 4.22589L61.7608 4.42513L62.0264 4.38491L61.9515 3.89054ZM63.9702 2.53308C64.0446 3.65499 63.9783 4.36395 63.7838 4.91243C63.5929 5.45047 63.2609 5.88419 62.6968 6.4247L63.3887 7.14673C64.0033 6.5578 64.4605 5.9957 64.7262 5.24676C64.9882 4.50827 65.0458 3.63909 64.968 2.46692L63.9702 2.53308ZM63.5428 7.76785V6.78571H62.5428V7.76785H63.5428ZM63.5428 6.78571V6.72701H62.5428V6.78571H63.5428ZM54 7V8H55V7H54ZM58.8223 2C56.125 2 54 4.35065 54 7H55C55 4.85063 56.7282 3 58.8223 3V2ZM62.5428 7.76785C62.5428 14.0599 57.2624 19.5 51 19.5V20.5C57.8342 20.5 63.5428 14.5925 63.5428 7.76785H62.5428ZM45.4581 2.67532C46.223 4.7183 49.1016 8.5 54.5 8.5V7.5C49.6285 7.5 47.0561 4.09122 46.3946 2.32468L45.4581 2.67532ZM45.479 2.27667C44.0055 5.22816 43.7576 8.09715 44.7751 10.5321C45.7926 12.967 48.0347 14.8702 51.3417 15.9743L51.6583 15.0257C48.5467 13.9869 46.5756 12.2473 45.6978 10.1465C44.8199 8.04571 44.9945 5.48613 46.3737 2.72333L45.479 2.27667ZM51.1462 15.1467C50.2665 16.0278 47.7616 17.7143 44.5 17.7143V18.7143C48.0849 18.7143 50.8317 16.877 51.8538 15.8533L51.1462 15.1467ZM62.3224 3.5552C61.4594 2.60084 60.2107 2 58.8223 2V3C59.916 3 60.8991 3.47214 61.5806 4.22589L62.3224 3.5552ZM62.0264 4.38491C63.0619 4.22808 64.0775 3.68292 64.8409 2.8344L64.0974 2.1656C63.4829 2.84872 62.6743 3.27537 61.8766 3.39618L62.0264 4.38491ZM44.2224 18.6301C46.4702 20.131 48.6331 20.5 51 20.5V19.5C48.7571 19.5 46.8089 19.1548 44.7776 17.7985L44.2224 18.6301Z" fill="#F2F2F2"/>
<path d="M111 6H112M99.5 1H111.5C113.709 1 115.5 2.79086 115.5 5V17C115.5 19.2091 113.709 21 111.5 21H99.5C97.2909 21 95.5 19.2091 95.5 17V5C95.5 2.79086 97.2909 1 99.5 1ZM105.5 15C103.291 15 101.5 13.2091 101.5 11C101.5 8.79086 103.291 7 105.5 7C107.709 7 109.5 8.79086 109.5 11C109.5 13.2091 107.709 15 105.5 15Z" stroke="#F2F2F2"/>
<path d="M156.5 21C150.977 21 146.5 16.5228 146.5 11C146.5 5.47715 150.977 1 156.5 1C162.023 1 166.5 5.47715 166.5 11C166.5 16.5228 162.023 21 156.5 21ZM156.5 21V9C156.5 7.89543 157.395 7 158.5 7H160M153 13H160" stroke="#F2F2F2"/>
</svg>
