<svg width="21" height="19" viewBox="0 0 21 19" fill="none" xmlns="http://www.w3.org/2000/svg">
<path d="M20.4691 0.656738L20.968 0.623661C20.9547 0.42309 20.8226 0.249983 20.6327 0.184238C20.4427 0.118493 20.2319 0.172896 20.0974 0.322335L20.4691 0.656738ZM19.5428 4.88374C19.5428 4.6076 19.3189 4.38374 19.0428 4.38374C18.7666 4.38374 18.5428 4.6076 18.5428 4.88374H19.5428ZM10.5 6.15674V6.65674H11V6.15674H10.5ZM1.92637 0.656738L2.39462 0.481414C2.32485 0.295078 2.15124 0.167842 1.95255 0.157424C1.75385 0.147006 1.56789 0.255389 1.47902 0.433408L1.92637 0.656738ZM7.5 13.6567L7.85383 14.01C7.97619 13.8875 8.02642 13.7103 7.98661 13.5418C7.94679 13.3732 7.8226 13.2373 7.65833 13.1825L7.5 13.6567ZM0.5 16.371V15.871C0.279732 15.871 0.0854109 16.0152 0.0215057 16.226C-0.0423996 16.4368 0.0391667 16.6645 0.222353 16.7869L0.5 16.371ZM17.9515 2.04728L17.5806 2.38262L17.7608 2.58187L18.0264 2.54164L17.9515 2.04728ZM19.9702 0.689815C20.0446 1.81173 19.9783 2.52069 19.7838 3.06917C19.5929 3.60721 19.2609 4.04093 18.6968 4.58144L19.3887 5.30346C20.0033 4.71454 20.4605 4.15244 20.7262 3.4035C20.9882 2.66501 21.0458 1.79583 20.968 0.623661L19.9702 0.689815ZM19.5428 5.92458V4.94245H18.5428V5.92458H19.5428ZM19.5428 4.94245V4.88374H18.5428V4.94245H19.5428ZM10 5.15674V6.15674H11V5.15674H10ZM14.8223 0.156738C12.125 0.156738 10 2.50739 10 5.15674H11C11 3.00737 12.7282 1.15674 14.8223 1.15674V0.156738ZM18.5428 5.92458C18.5428 12.2167 13.2624 17.6567 7 17.6567V18.6567C13.8342 18.6567 19.5428 12.7493 19.5428 5.92458H18.5428ZM1.45811 0.832062C2.22305 2.87504 5.10161 6.65674 10.5 6.65674V5.65674C5.62855 5.65674 3.05605 2.24796 2.39462 0.481414L1.45811 0.832062ZM1.47902 0.433408C0.00554863 3.3849 -0.242404 6.25389 0.775073 8.6888C1.79256 11.1237 4.03467 13.027 7.34167 14.131L7.65833 13.1825C4.54668 12.1436 2.57561 10.404 1.69776 8.30324C0.819895 6.20244 0.994452 3.64287 2.37372 0.880069L1.47902 0.433408ZM7.14617 13.3035C6.26646 14.1845 3.76165 15.871 0.5 15.871V16.871C4.08491 16.871 6.83174 15.0337 7.85383 14.01L7.14617 13.3035ZM18.3224 1.71194C17.4594 0.757576 16.2107 0.156738 14.8223 0.156738V1.15674C15.916 1.15674 16.8991 1.62888 17.5806 2.38262L18.3224 1.71194ZM18.0264 2.54164C19.0619 2.38482 20.0775 1.83966 20.8409 0.991142L20.0974 0.322335C19.4829 1.00545 18.6743 1.43211 17.8766 1.55292L18.0264 2.54164ZM0.222353 16.7869C2.47016 18.2877 4.63313 18.6567 7 18.6567V17.6567C4.75713 17.6567 2.80895 17.3115 0.777647 15.9552L0.222353 16.7869Z" fill="#F2F2F2"/>
</svg>
